<svg width="720" height="1280" viewBox="0 0 720 1280" fill="none" xmlns="http://www.w3.org/2000/svg">
  <rect width="720" height="1280" rx="56" fill="#111C30"/>
  <rect x="60" y="120" width="600" height="120" rx="30" fill="#FF8C00" fill-opacity="0.15"/>
  <rect x="120" y="172" width="360" height="16" rx="8" fill="#FF8C00" fill-opacity="0.5"/>
  <rect x="60" y="300" width="600" height="280" rx="40" fill="#16253F"/>
  <rect x="120" y="340" width="220" height="30" rx="15" fill="#FF8C00" fill-opacity="0.6"/>
  <rect x="120" y="388" width="480" height="16" rx="8" fill="#1E3A8A"/>
  <rect x="120" y="420" width="360" height="16" rx="8" fill="#1E3A8A" fill-opacity="0.7"/>
  <rect x="60" y="620" width="600" height="280" rx="40" fill="#16253F"/>
  <rect x="120" y="660" width="220" height="30" rx="15" fill="#FF8C00" fill-opacity="0.6"/>
  <rect x="120" y="708" width="480" height="16" rx="8" fill="#1E3A8A"/>
  <rect x="120" y="740" width="360" height="16" rx="8" fill="#1E3A8A" fill-opacity="0.7"/>
  <rect x="240" y="980" width="240" height="72" rx="36" fill="#FF8C00"/>
  <rect x="260" y="1006" width="200" height="20" rx="10" fill="white" fill-opacity="0.85"/>
</svg>
